<?xml version="1.0" encoding="UTF-8" standalone="no"?>
<!DOCTYPE svg PUBLIC "-//W3C//DTD SVG 1.1//EN"
 "http://www.w3.org/Graphics/SVG/1.1/DTD/svg11.dtd">
<!-- Generated by graphviz version 2.43.0 (0)
 -->
<!-- Title: G Pages: 1 -->
<svg width="1815pt" height="392pt"
 viewBox="0.00 0.00 1814.68 392.00" xmlns="http://www.w3.org/2000/svg" xmlns:xlink="http://www.w3.org/1999/xlink">
<g id="graph0" class="graph" transform="scale(1 1) rotate(0) translate(4 388)">
<title>G</title>
<polygon fill="white" stroke="transparent" points="-4,4 -4,-388 1810.68,-388 1810.68,4 -4,4"/>
<!-- high risk for heart attack 00 -->
<g id="node1" class="node">
<title>high risk for heart attack 00</title>
<ellipse fill="none" stroke="black" cx="294.84" cy="-192" rx="127.28" ry="18"/>
<text text-anchor="middle" x="294.84" y="-188.3" font-family="Times,serif" font-size="14.00">high risk for heart attack</text>
</g>
<!-- diet 0 -->
<g id="node2" class="node">
<title>diet 0</title>
<ellipse fill="none" stroke="black" cx="591.84" cy="-279" rx="28.7" ry="18"/>
<text text-anchor="middle" x="591.84" y="-275.3" font-family="Times,serif" font-size="14.00">diet</text>
</g>
<!-- diet 0&#45;&gt;high risk for heart attack 00 -->
<g id="edge1" class="edge">
<title>diet 0&#45;&gt;high risk for heart attack 00</title>
<path fill="none" stroke="black" d="M565.88,-271.24C539.6,-264.34 497.81,-253.23 461.84,-243 426.36,-232.91 386.8,-221.1 355.1,-211.48"/>
<polygon fill="black" stroke="black" points="356.11,-208.13 345.52,-208.58 354.08,-214.83 356.11,-208.13"/>
<text text-anchor="middle" x="497.84" y="-231.8" font-family="Times,serif" font-size="14.00">unhealthy</text>
</g>
<!-- do sports 01 -->
<g id="node6" class="node">
<title>do sports 01</title>
<ellipse fill="none" stroke="black" cx="493.84" cy="-192" rx="53.89" ry="18"/>
<text text-anchor="middle" x="493.84" y="-188.3" font-family="Times,serif" font-size="14.00">do sports</text>
</g>
<!-- diet 0&#45;&gt;do sports 01 -->
<g id="edge6" class="edge">
<title>diet 0&#45;&gt;do sports 01</title>
<path fill="none" stroke="black" d="M575.66,-263.96C560.57,-250.88 537.8,-231.13 520.11,-215.79"/>
<polygon fill="black" stroke="black" points="522.24,-213 512.39,-209.09 517.65,-218.28 522.24,-213"/>
<text text-anchor="middle" x="575.84" y="-231.8" font-family="Times,serif" font-size="14.00">healthy</text>
</g>
<!-- do sports 02 -->
<g id="node9" class="node">
<title>do sports 02</title>
<ellipse fill="none" stroke="black" cx="688.84" cy="-192" rx="53.89" ry="18"/>
<text text-anchor="middle" x="688.84" y="-188.3" font-family="Times,serif" font-size="14.00">do sports</text>
</g>
<!-- diet 0&#45;&gt;do sports 02 -->
<g id="edge9" class="edge">
<title>diet 0&#45;&gt;do sports 02</title>
<path fill="none" stroke="black" d="M607.86,-263.96C622.79,-250.88 645.32,-231.13 662.83,-215.79"/>
<polygon fill="black" stroke="black" points="665.27,-218.31 670.48,-209.09 660.65,-213.05 665.27,-218.31"/>
<text text-anchor="middle" x="672.84" y="-231.8" font-family="Times,serif" font-size="14.00">neutral</text>
</g>
<!-- low risk for heart attack 0100 -->
<g id="node3" class="node">
<title>low risk for heart attack 0100</title>
<ellipse fill="none" stroke="black" cx="122.84" cy="-18" rx="122.68" ry="18"/>
<text text-anchor="middle" x="122.84" y="-14.3" font-family="Times,serif" font-size="14.00">low risk for heart attack</text>
</g>
<!-- age 010 -->
<g id="node4" class="node">
<title>age 010</title>
<ellipse fill="none" stroke="black" cx="256.84" cy="-105" rx="27.1" ry="18"/>
<text text-anchor="middle" x="256.84" y="-101.3" font-family="Times,serif" font-size="14.00">age</text>
</g>
<!-- age 010&#45;&gt;low risk for heart attack 0100 -->
<g id="edge2" class="edge">
<title>age 010&#45;&gt;low risk for heart attack 0100</title>
<path fill="none" stroke="black" d="M237.92,-92C217.14,-78.82 183.32,-57.37 157.71,-41.12"/>
<polygon fill="black" stroke="black" points="159.34,-38.01 149.02,-35.61 155.59,-43.92 159.34,-38.01"/>
<text text-anchor="middle" x="214.34" y="-57.8" font-family="Times,serif" font-size="14.00">&gt;50</text>
</g>
<!-- high risk for heart attack 0101 -->
<g id="node5" class="node">
<title>high risk for heart attack 0101</title>
<ellipse fill="none" stroke="black" cx="390.84" cy="-18" rx="127.28" ry="18"/>
<text text-anchor="middle" x="390.84" y="-14.3" font-family="Times,serif" font-size="14.00">high risk for heart attack</text>
</g>
<!-- age 010&#45;&gt;high risk for heart attack 0101 -->
<g id="edge3" class="edge">
<title>age 010&#45;&gt;high risk for heart attack 0101</title>
<path fill="none" stroke="black" d="M275.75,-92C296.4,-78.9 329.94,-57.63 355.49,-41.42"/>
<polygon fill="black" stroke="black" points="357.6,-44.23 364.16,-35.92 353.85,-38.32 357.6,-44.23"/>
<text text-anchor="middle" x="353.34" y="-57.8" font-family="Times,serif" font-size="14.00">30&#45;50</text>
</g>
<!-- do sports 01&#45;&gt;age 010 -->
<g id="edge4" class="edge">
<title>do sports 01&#45;&gt;age 010</title>
<path fill="none" stroke="black" d="M454.79,-179.36C413.9,-166.8 348.09,-145.57 292.84,-123 291.02,-122.26 289.15,-121.47 287.28,-120.65"/>
<polygon fill="black" stroke="black" points="288.55,-117.38 277.99,-116.45 285.66,-123.76 288.55,-117.38"/>
<text text-anchor="middle" x="412.84" y="-144.8" font-family="Times,serif" font-size="14.00">not at all</text>
</g>
<!-- low risk for heart attack 011 -->
<g id="node7" class="node">
<title>low risk for heart attack 011</title>
<ellipse fill="none" stroke="black" cx="424.84" cy="-105" rx="122.68" ry="18"/>
<text text-anchor="middle" x="424.84" y="-101.3" font-family="Times,serif" font-size="14.00">low risk for heart attack</text>
</g>
<!-- do sports 01&#45;&gt;low risk for heart attack 011 -->
<g id="edge5" class="edge">
<title>do sports 01&#45;&gt;low risk for heart attack 011</title>
<path fill="none" stroke="black" d="M480.21,-174.21C470.16,-161.83 456.33,-144.8 445.01,-130.85"/>
<polygon fill="black" stroke="black" points="447.7,-128.61 438.68,-123.05 442.26,-133.02 447.7,-128.61"/>
<text text-anchor="middle" x="502.34" y="-144.8" font-family="Times,serif" font-size="14.00">irregularly</text>
</g>
<!-- low risk for heart attack 020 -->
<g id="node8" class="node">
<title>low risk for heart attack 020</title>
<ellipse fill="none" stroke="black" cx="688.84" cy="-105" rx="122.68" ry="18"/>
<text text-anchor="middle" x="688.84" y="-101.3" font-family="Times,serif" font-size="14.00">low risk for heart attack</text>
</g>
<!-- do sports 02&#45;&gt;low risk for heart attack 020 -->
<g id="edge7" class="edge">
<title>do sports 02&#45;&gt;low risk for heart attack 020</title>
<path fill="none" stroke="black" d="M688.84,-173.8C688.84,-162.16 688.84,-146.55 688.84,-133.24"/>
<polygon fill="black" stroke="black" points="692.34,-133.18 688.84,-123.18 685.34,-133.18 692.34,-133.18"/>
<text text-anchor="middle" x="721.84" y="-144.8" font-family="Times,serif" font-size="14.00">regularly</text>
</g>
<!-- high risk for heart attack 021 -->
<g id="node10" class="node">
<title>high risk for heart attack 021</title>
<ellipse fill="none" stroke="black" cx="956.84" cy="-105" rx="127.28" ry="18"/>
<text text-anchor="middle" x="956.84" y="-101.3" font-family="Times,serif" font-size="14.00">high risk for heart attack</text>
</g>
<!-- do sports 02&#45;&gt;high risk for heart attack 021 -->
<g id="edge8" class="edge">
<title>do sports 02&#45;&gt;high risk for heart attack 021</title>
<path fill="none" stroke="black" d="M726.67,-179C771.13,-164.9 845.44,-141.33 897.57,-124.8"/>
<polygon fill="black" stroke="black" points="898.89,-128.05 907.36,-121.69 896.77,-121.38 898.89,-128.05"/>
<text text-anchor="middle" x="878.34" y="-144.8" font-family="Times,serif" font-size="14.00">irregularly</text>
</g>
<!-- stress level  -->
<g id="node11" class="node">
<title>stress level </title>
<ellipse fill="none" stroke="black" cx="1370.84" cy="-366" rx="66.89" ry="18"/>
<text text-anchor="middle" x="1370.84" y="-362.3" font-family="Times,serif" font-size="14.00">stress level </text>
</g>
<!-- stress level &#45;&gt;diet 0 -->
<g id="edge10" class="edge">
<title>stress level &#45;&gt;diet 0</title>
<path fill="none" stroke="black" d="M1310.04,-358.37C1156.42,-341.6 756.02,-297.91 630.23,-284.19"/>
<polygon fill="black" stroke="black" points="630.27,-280.67 619.95,-283.07 629.51,-287.63 630.27,-280.67"/>
<text text-anchor="middle" x="1044.84" y="-318.8" font-family="Times,serif" font-size="14.00">high</text>
</g>
<!-- age 1 -->
<g id="node15" class="node">
<title>age 1</title>
<ellipse fill="none" stroke="black" cx="1370.84" cy="-279" rx="27.1" ry="18"/>
<text text-anchor="middle" x="1370.84" y="-275.3" font-family="Times,serif" font-size="14.00">age</text>
</g>
<!-- stress level &#45;&gt;age 1 -->
<g id="edge16" class="edge">
<title>stress level &#45;&gt;age 1</title>
<path fill="none" stroke="black" d="M1370.84,-347.8C1370.84,-336.16 1370.84,-320.55 1370.84,-307.24"/>
<polygon fill="black" stroke="black" points="1374.34,-307.18 1370.84,-297.18 1367.34,-307.18 1374.34,-307.18"/>
<text text-anchor="middle" x="1399.84" y="-318.8" font-family="Times,serif" font-size="14.00">medium</text>
</g>
<!-- low risk for heart attack 2 -->
<g id="node18" class="node">
<title>low risk for heart attack 2</title>
<ellipse fill="none" stroke="black" cx="1538.84" cy="-279" rx="122.68" ry="18"/>
<text text-anchor="middle" x="1538.84" y="-275.3" font-family="Times,serif" font-size="14.00">low risk for heart attack</text>
</g>
<!-- stress level &#45;&gt;low risk for heart attack 2 -->
<g id="edge17" class="edge">
<title>stress level &#45;&gt;low risk for heart attack 2</title>
<path fill="none" stroke="black" d="M1400.87,-349.8C1427.82,-336.17 1467.6,-316.04 1497.54,-300.9"/>
<polygon fill="black" stroke="black" points="1499.14,-304.01 1506.49,-296.37 1495.98,-297.76 1499.14,-304.01"/>
<text text-anchor="middle" x="1478.34" y="-318.8" font-family="Times,serif" font-size="14.00">low</text>
</g>
<!-- low risk for heart attack 100 -->
<g id="node12" class="node">
<title>low risk for heart attack 100</title>
<ellipse fill="none" stroke="black" cx="1224.84" cy="-105" rx="122.68" ry="18"/>
<text text-anchor="middle" x="1224.84" y="-101.3" font-family="Times,serif" font-size="14.00">low risk for heart attack</text>
</g>
<!-- do sports 10 -->
<g id="node13" class="node">
<title>do sports 10</title>
<ellipse fill="none" stroke="black" cx="1224.84" cy="-192" rx="53.89" ry="18"/>
<text text-anchor="middle" x="1224.84" y="-188.3" font-family="Times,serif" font-size="14.00">do sports</text>
</g>
<!-- do sports 10&#45;&gt;low risk for heart attack 100 -->
<g id="edge11" class="edge">
<title>do sports 10&#45;&gt;low risk for heart attack 100</title>
<path fill="none" stroke="black" d="M1224.84,-173.8C1224.84,-162.16 1224.84,-146.55 1224.84,-133.24"/>
<polygon fill="black" stroke="black" points="1228.34,-133.18 1224.84,-123.18 1221.34,-133.18 1228.34,-133.18"/>
<text text-anchor="middle" x="1257.84" y="-144.8" font-family="Times,serif" font-size="14.00">regularly</text>
</g>
<!-- high risk for heart attack 101 -->
<g id="node14" class="node">
<title>high risk for heart attack 101</title>
<ellipse fill="none" stroke="black" cx="1492.84" cy="-105" rx="127.28" ry="18"/>
<text text-anchor="middle" x="1492.84" y="-101.3" font-family="Times,serif" font-size="14.00">high risk for heart attack</text>
</g>
<!-- do sports 10&#45;&gt;high risk for heart attack 101 -->
<g id="edge12" class="edge">
<title>do sports 10&#45;&gt;high risk for heart attack 101</title>
<path fill="none" stroke="black" d="M1262.67,-179C1307.13,-164.9 1381.44,-141.33 1433.57,-124.8"/>
<polygon fill="black" stroke="black" points="1434.89,-128.05 1443.36,-121.69 1432.77,-121.38 1434.89,-128.05"/>
<text text-anchor="middle" x="1407.84" y="-144.8" font-family="Times,serif" font-size="14.00">not at all</text>
</g>
<!-- age 1&#45;&gt;do sports 10 -->
<g id="edge13" class="edge">
<title>age 1&#45;&gt;do sports 10</title>
<path fill="none" stroke="black" d="M1350.84,-266.36C1327.31,-252.66 1287.82,-229.67 1259.32,-213.07"/>
<polygon fill="black" stroke="black" points="1260.88,-209.93 1250.48,-207.93 1257.36,-215.98 1260.88,-209.93"/>
<text text-anchor="middle" x="1322.34" y="-231.8" font-family="Times,serif" font-size="14.00">&gt;50</text>
</g>
<!-- low risk for heart attack 11 -->
<g id="node16" class="node">
<title>low risk for heart attack 11</title>
<ellipse fill="none" stroke="black" cx="1419.84" cy="-192" rx="122.68" ry="18"/>
<text text-anchor="middle" x="1419.84" y="-188.3" font-family="Times,serif" font-size="14.00">low risk for heart attack</text>
</g>
<!-- age 1&#45;&gt;low risk for heart attack 11 -->
<g id="edge14" class="edge">
<title>age 1&#45;&gt;low risk for heart attack 11</title>
<path fill="none" stroke="black" d="M1380.06,-262.01C1387.06,-249.86 1396.84,-232.9 1404.95,-218.83"/>
<polygon fill="black" stroke="black" points="1408.03,-220.49 1409.99,-210.08 1401.96,-217 1408.03,-220.49"/>
<text text-anchor="middle" x="1419.34" y="-231.8" font-family="Times,serif" font-size="14.00">30&#45;50</text>
</g>
<!-- low risk for heart attack 12 -->
<g id="node17" class="node">
<title>low risk for heart attack 12</title>
<ellipse fill="none" stroke="black" cx="1683.84" cy="-192" rx="122.68" ry="18"/>
<text text-anchor="middle" x="1683.84" y="-188.3" font-family="Times,serif" font-size="14.00">low risk for heart attack</text>
</g>
<!-- age 1&#45;&gt;low risk for heart attack 12 -->
<g id="edge15" class="edge">
<title>age 1&#45;&gt;low risk for heart attack 12</title>
<path fill="none" stroke="black" d="M1391.86,-267.21C1396.7,-264.97 1401.89,-262.76 1406.84,-261 1470.89,-238.27 1545.89,-220.37 1601.68,-208.65"/>
<polygon fill="black" stroke="black" points="1602.44,-212.07 1611.52,-206.6 1601.02,-205.21 1602.44,-212.07"/>
<text text-anchor="middle" x="1528.34" y="-231.8" font-family="Times,serif" font-size="14.00">&lt;30</text>
</g>
</g>
</svg>
