<?xml version="1.0" encoding="UTF-8" standalone="no"?>
<!DOCTYPE svg PUBLIC "-//W3C//DTD SVG 1.1//EN"
 "http://www.w3.org/Graphics/SVG/1.1/DTD/svg11.dtd">
<!-- Generated by graphviz version 2.43.0 (0)
 -->
<!-- Title: G Pages: 1 -->
<svg width="414pt" height="218pt"
 viewBox="0.00 0.00 413.68 218.00" xmlns="http://www.w3.org/2000/svg" xmlns:xlink="http://www.w3.org/1999/xlink">
<g id="graph0" class="graph" transform="scale(1 1) rotate(0) translate(4 214)">
<title>G</title>
<polygon fill="white" stroke="transparent" points="-4,4 -4,-214 409.68,-214 409.68,4 -4,4"/>
<!-- gym 00 -->
<g id="node1" class="node">
<title>gym 00</title>
<ellipse fill="none" stroke="black" cx="94.14" cy="-18" rx="30.59" ry="18"/>
<text text-anchor="middle" x="94.14" y="-14.3" font-family="Times,serif" font-size="14.00">gym</text>
</g>
<!-- Do I have gym home equipment? 0 -->
<g id="node2" class="node">
<title>Do I have gym home equipment? 0</title>
<ellipse fill="none" stroke="black" cx="163.14" cy="-105" rx="163.27" ry="18"/>
<text text-anchor="middle" x="163.14" y="-101.3" font-family="Times,serif" font-size="14.00">Do I have gym home equipment?</text>
</g>
<!-- Do I have gym home equipment? 0&#45;&gt;gym 00 -->
<g id="edge1" class="edge">
<title>Do I have gym home equipment? 0&#45;&gt;gym 00</title>
<path fill="none" stroke="black" d="M149.17,-86.8C138.77,-73.98 124.45,-56.35 113.03,-42.27"/>
<polygon fill="black" stroke="black" points="115.71,-40.02 106.69,-34.46 110.27,-44.43 115.71,-40.02"/>
<text text-anchor="middle" x="142.14" y="-57.8" font-family="Times,serif" font-size="14.00">no</text>
</g>
<!-- workout at home 01 -->
<g id="node3" class="node">
<title>workout at home 01</title>
<ellipse fill="none" stroke="black" cx="232.14" cy="-18" rx="89.08" ry="18"/>
<text text-anchor="middle" x="232.14" y="-14.3" font-family="Times,serif" font-size="14.00">workout at home</text>
</g>
<!-- Do I have gym home equipment? 0&#45;&gt;workout at home 01 -->
<g id="edge2" class="edge">
<title>Do I have gym home equipment? 0&#45;&gt;workout at home 01</title>
<path fill="none" stroke="black" d="M177.1,-86.8C187.08,-74.51 200.66,-57.77 211.84,-44.01"/>
<polygon fill="black" stroke="black" points="214.84,-45.86 218.43,-35.89 209.41,-41.44 214.84,-45.86"/>
<text text-anchor="middle" x="214.64" y="-57.8" font-family="Times,serif" font-size="14.00">yes</text>
</g>
<!-- gym nearby?  -->
<g id="node4" class="node">
<title>gym nearby? </title>
<ellipse fill="none" stroke="black" cx="269.14" cy="-192" rx="73.39" ry="18"/>
<text text-anchor="middle" x="269.14" y="-188.3" font-family="Times,serif" font-size="14.00">gym nearby? </text>
</g>
<!-- gym nearby? &#45;&gt;Do I have gym home equipment? 0 -->
<g id="edge3" class="edge">
<title>gym nearby? &#45;&gt;Do I have gym home equipment? 0</title>
<path fill="none" stroke="black" d="M248.7,-174.61C232.63,-161.73 210.04,-143.61 192.11,-129.23"/>
<polygon fill="black" stroke="black" points="194.23,-126.45 184.24,-122.92 189.85,-131.91 194.23,-126.45"/>
<text text-anchor="middle" x="232.14" y="-144.8" font-family="Times,serif" font-size="14.00">no</text>
</g>
<!-- gym 1 -->
<g id="node5" class="node">
<title>gym 1</title>
<ellipse fill="none" stroke="black" cx="375.14" cy="-105" rx="30.59" ry="18"/>
<text text-anchor="middle" x="375.14" y="-101.3" font-family="Times,serif" font-size="14.00">gym</text>
</g>
<!-- gym nearby? &#45;&gt;gym 1 -->
<g id="edge4" class="edge">
<title>gym nearby? &#45;&gt;gym 1</title>
<path fill="none" stroke="black" d="M289.57,-174.61C306.69,-160.89 331.19,-141.24 349.59,-126.48"/>
<polygon fill="black" stroke="black" points="351.96,-129.07 357.57,-120.08 347.58,-123.61 351.96,-129.07"/>
<text text-anchor="middle" x="341.64" y="-144.8" font-family="Times,serif" font-size="14.00">yes</text>
</g>
</g>
</svg>
