<?xml version="1.0" encoding="UTF-8" standalone="no"?>
<!DOCTYPE svg PUBLIC "-//W3C//DTD SVG 1.1//EN"
 "http://www.w3.org/Graphics/SVG/1.1/DTD/svg11.dtd">
<!-- Generated by graphviz version 2.43.0 (0)
 -->
<!-- Title: G Pages: 1 -->
<svg width="526pt" height="218pt"
 viewBox="0.00 0.00 526.49 218.00" xmlns="http://www.w3.org/2000/svg" xmlns:xlink="http://www.w3.org/1999/xlink">
<g id="graph0" class="graph" transform="scale(1 1) rotate(0) translate(4 214)">
<title>G</title>
<polygon fill="white" stroke="transparent" points="-4,4 -4,-214 522.49,-214 522.49,4 -4,4"/>
<!-- is healthy 0 -->
<g id="node1" class="node">
<title>is healthy 0</title>
<ellipse fill="none" stroke="black" cx="55.9" cy="-105" rx="55.79" ry="18"/>
<text text-anchor="middle" x="55.9" y="-101.3" font-family="Times,serif" font-size="14.00">is healthy</text>
</g>
<!-- diet  -->
<g id="node2" class="node">
<title>diet </title>
<ellipse fill="none" stroke="black" cx="185.9" cy="-192" rx="31.7" ry="18"/>
<text text-anchor="middle" x="185.9" y="-188.3" font-family="Times,serif" font-size="14.00">diet </text>
</g>
<!-- diet &#45;&gt;is healthy 0 -->
<g id="edge1" class="edge">
<title>diet &#45;&gt;is healthy 0</title>
<path fill="none" stroke="black" d="M165.87,-177.91C145.19,-164.38 112.6,-143.07 88.26,-127.16"/>
<polygon fill="black" stroke="black" points="89.98,-124.11 79.7,-121.56 86.15,-129.97 89.98,-124.11"/>
<text text-anchor="middle" x="150.4" y="-144.8" font-family="Times,serif" font-size="14.00">vegan</text>
</g>
<!-- is healthy 1 -->
<g id="node3" class="node">
<title>is healthy 1</title>
<ellipse fill="none" stroke="black" cx="185.9" cy="-105" rx="55.79" ry="18"/>
<text text-anchor="middle" x="185.9" y="-101.3" font-family="Times,serif" font-size="14.00">is healthy</text>
</g>
<!-- diet &#45;&gt;is healthy 1 -->
<g id="edge2" class="edge">
<title>diet &#45;&gt;is healthy 1</title>
<path fill="none" stroke="black" d="M185.9,-173.8C185.9,-162.16 185.9,-146.55 185.9,-133.24"/>
<polygon fill="black" stroke="black" points="189.4,-133.18 185.9,-123.18 182.4,-133.18 189.4,-133.18"/>
<text text-anchor="middle" x="224.4" y="-144.8" font-family="Times,serif" font-size="14.00">vegetarian</text>
</g>
<!-- smoking 2 -->
<g id="node5" class="node">
<title>smoking 2</title>
<ellipse fill="none" stroke="black" cx="309.9" cy="-105" rx="50.09" ry="18"/>
<text text-anchor="middle" x="309.9" y="-101.3" font-family="Times,serif" font-size="14.00">smoking</text>
</g>
<!-- diet &#45;&gt;smoking 2 -->
<g id="edge6" class="edge">
<title>diet &#45;&gt;smoking 2</title>
<path fill="none" stroke="black" d="M213.41,-182.62C229.9,-176.78 250.73,-167.89 266.9,-156 276.4,-149.01 285.22,-139.54 292.37,-130.73"/>
<polygon fill="black" stroke="black" points="295.32,-132.63 298.68,-122.58 289.79,-128.34 295.32,-132.63"/>
<text text-anchor="middle" x="320.4" y="-144.8" font-family="Times,serif" font-size="14.00">with meat</text>
</g>
<!-- is unhealthy 20 -->
<g id="node4" class="node">
<title>is unhealthy 20</title>
<ellipse fill="none" stroke="black" cx="168.9" cy="-18" rx="67.69" ry="18"/>
<text text-anchor="middle" x="168.9" y="-14.3" font-family="Times,serif" font-size="14.00">is unhealthy</text>
</g>
<!-- smoking 2&#45;&gt;is unhealthy 20 -->
<g id="edge3" class="edge">
<title>smoking 2&#45;&gt;is unhealthy 20</title>
<path fill="none" stroke="black" d="M272.11,-93.14C240.13,-83.84 199,-71.54 195.9,-69 188.36,-62.82 182.62,-53.96 178.41,-45.41"/>
<polygon fill="black" stroke="black" points="181.52,-43.8 174.29,-36.05 175.11,-46.61 181.52,-43.8"/>
<text text-anchor="middle" x="250.9" y="-57.8" font-family="Times,serif" font-size="14.00">regular smoker</text>
</g>
<!-- is healthy 21 -->
<g id="node6" class="node">
<title>is healthy 21</title>
<ellipse fill="none" stroke="black" cx="309.9" cy="-18" rx="55.79" ry="18"/>
<text text-anchor="middle" x="309.9" y="-14.3" font-family="Times,serif" font-size="14.00">is healthy</text>
</g>
<!-- smoking 2&#45;&gt;is healthy 21 -->
<g id="edge4" class="edge">
<title>smoking 2&#45;&gt;is healthy 21</title>
<path fill="none" stroke="black" d="M309.9,-86.8C309.9,-75.16 309.9,-59.55 309.9,-46.24"/>
<polygon fill="black" stroke="black" points="313.4,-46.18 309.9,-36.18 306.4,-46.18 313.4,-46.18"/>
<text text-anchor="middle" x="349.4" y="-57.8" font-family="Times,serif" font-size="14.00">nonsmoker</text>
</g>
<!-- is unhealthy 22 -->
<g id="node7" class="node">
<title>is unhealthy 22</title>
<ellipse fill="none" stroke="black" cx="450.9" cy="-18" rx="67.69" ry="18"/>
<text text-anchor="middle" x="450.9" y="-14.3" font-family="Times,serif" font-size="14.00">is unhealthy</text>
</g>
<!-- smoking 2&#45;&gt;is unhealthy 22 -->
<g id="edge5" class="edge">
<title>smoking 2&#45;&gt;is unhealthy 22</title>
<path fill="none" stroke="black" d="M345.01,-92C360.26,-86.09 378.01,-78.23 392.9,-69 404.84,-61.59 416.81,-51.77 426.75,-42.8"/>
<polygon fill="black" stroke="black" points="429.3,-45.21 434.25,-35.84 424.54,-40.08 429.3,-45.21"/>
<text text-anchor="middle" x="464.4" y="-57.8" font-family="Times,serif" font-size="14.00">casual smoker</text>
</g>
</g>
</svg>
