<?xml version="1.0" encoding="UTF-8" standalone="no"?>
<!DOCTYPE svg PUBLIC "-//W3C//DTD SVG 1.1//EN"
 "http://www.w3.org/Graphics/SVG/1.1/DTD/svg11.dtd">
<!-- Generated by graphviz version 2.43.0 (0)
 -->
<!-- Title: G Pages: 1 -->
<svg width="2954pt" height="305pt"
 viewBox="0.00 0.00 2954.28 305.00" xmlns="http://www.w3.org/2000/svg" xmlns:xlink="http://www.w3.org/1999/xlink">
<g id="graph0" class="graph" transform="scale(1 1) rotate(0) translate(4 301)">
<title>G</title>
<polygon fill="white" stroke="transparent" points="-4,4 -4,-301 2950.28,-301 2950.28,4 -4,4"/>
<!-- mild infection symptoms 00 -->
<g id="node1" class="node">
<title>mild infection symptoms 00</title>
<ellipse fill="none" stroke="black" cx="125.44" cy="-105" rx="125.38" ry="18"/>
<text text-anchor="middle" x="125.44" y="-101.3" font-family="Times,serif" font-size="14.00">mild infection symptoms</text>
</g>
<!-- do sports 0 -->
<g id="node2" class="node">
<title>do sports 0</title>
<ellipse fill="none" stroke="black" cx="544.44" cy="-192" rx="53.89" ry="18"/>
<text text-anchor="middle" x="544.44" y="-188.3" font-family="Times,serif" font-size="14.00">do sports</text>
</g>
<!-- do sports 0&#45;&gt;mild infection symptoms 00 -->
<g id="edge1" class="edge">
<title>do sports 0&#45;&gt;mild infection symptoms 00</title>
<path fill="none" stroke="black" d="M499.6,-181.9C429.26,-167.64 292.04,-139.8 204.75,-122.09"/>
<polygon fill="black" stroke="black" points="205.39,-118.65 194.89,-120.09 204,-125.51 205.39,-118.65"/>
<text text-anchor="middle" x="393.44" y="-144.8" font-family="Times,serif" font-size="14.00">regularly</text>
</g>
<!-- severe infection symptoms 01 -->
<g id="node3" class="node">
<title>severe infection symptoms 01</title>
<ellipse fill="none" stroke="black" cx="404.44" cy="-105" rx="135.68" ry="18"/>
<text text-anchor="middle" x="404.44" y="-101.3" font-family="Times,serif" font-size="14.00">severe infection symptoms</text>
</g>
<!-- do sports 0&#45;&gt;severe infection symptoms 01 -->
<g id="edge2" class="edge">
<title>do sports 0&#45;&gt;severe infection symptoms 01</title>
<path fill="none" stroke="black" d="M519.41,-175.8C497.55,-162.53 465.56,-143.11 440.86,-128.12"/>
<polygon fill="black" stroke="black" points="442.49,-125.01 432.13,-122.81 438.86,-130.99 442.49,-125.01"/>
<text text-anchor="middle" x="515.44" y="-144.8" font-family="Times,serif" font-size="14.00">not at all</text>
</g>
<!-- mild infection symptoms 02 -->
<g id="node4" class="node">
<title>mild infection symptoms 02</title>
<ellipse fill="none" stroke="black" cx="683.44" cy="-105" rx="125.38" ry="18"/>
<text text-anchor="middle" x="683.44" y="-101.3" font-family="Times,serif" font-size="14.00">mild infection symptoms</text>
</g>
<!-- do sports 0&#45;&gt;mild infection symptoms 02 -->
<g id="edge3" class="edge">
<title>do sports 0&#45;&gt;mild infection symptoms 02</title>
<path fill="none" stroke="black" d="M569.29,-175.8C590.99,-162.53 622.76,-143.11 647.27,-128.12"/>
<polygon fill="black" stroke="black" points="649.24,-131.02 655.95,-122.81 645.59,-125.04 649.24,-131.02"/>
<text text-anchor="middle" x="660.94" y="-144.8" font-family="Times,serif" font-size="14.00">irregularly</text>
</g>
<!-- pre&#45;existing conditions  -->
<g id="node5" class="node">
<title>pre&#45;existing conditions </title>
<ellipse fill="none" stroke="black" cx="1259.44" cy="-279" rx="120.48" ry="18"/>
<text text-anchor="middle" x="1259.44" y="-275.3" font-family="Times,serif" font-size="14.00">pre&#45;existing conditions </text>
</g>
<!-- pre&#45;existing conditions &#45;&gt;do sports 0 -->
<g id="edge4" class="edge">
<title>pre&#45;existing conditions &#45;&gt;do sports 0</title>
<path fill="none" stroke="black" d="M1168.52,-267.19C1020.17,-249.56 730.04,-215.06 604.6,-200.15"/>
<polygon fill="black" stroke="black" points="604.76,-196.65 594.42,-198.94 603.93,-203.6 604.76,-196.65"/>
<text text-anchor="middle" x="993.94" y="-231.8" font-family="Times,serif" font-size="14.00">heart disease</text>
</g>
<!-- mild infection symptoms 1 -->
<g id="node6" class="node">
<title>mild infection symptoms 1</title>
<ellipse fill="none" stroke="black" cx="1196.44" cy="-192" rx="125.38" ry="18"/>
<text text-anchor="middle" x="1196.44" y="-188.3" font-family="Times,serif" font-size="14.00">mild infection symptoms</text>
</g>
<!-- pre&#45;existing conditions &#45;&gt;mild infection symptoms 1 -->
<g id="edge5" class="edge">
<title>pre&#45;existing conditions &#45;&gt;mild infection symptoms 1</title>
<path fill="none" stroke="black" d="M1246.69,-260.8C1237.64,-248.59 1225.34,-231.99 1215.17,-218.28"/>
<polygon fill="black" stroke="black" points="1217.94,-216.13 1209.17,-210.18 1212.31,-220.29 1217.94,-216.13"/>
<text text-anchor="middle" x="1249.94" y="-231.8" font-family="Times,serif" font-size="14.00">none</text>
</g>
<!-- do sports 2 -->
<g id="node12" class="node">
<title>do sports 2</title>
<ellipse fill="none" stroke="black" cx="1393.44" cy="-192" rx="53.89" ry="18"/>
<text text-anchor="middle" x="1393.44" y="-188.3" font-family="Times,serif" font-size="14.00">do sports</text>
</g>
<!-- pre&#45;existing conditions &#45;&gt;do sports 2 -->
<g id="edge13" class="edge">
<title>pre&#45;existing conditions &#45;&gt;do sports 2</title>
<path fill="none" stroke="black" d="M1285.59,-261.41C1307.07,-247.79 1337.6,-228.42 1360.7,-213.77"/>
<polygon fill="black" stroke="black" points="1362.58,-216.72 1369.15,-208.4 1358.84,-210.81 1362.58,-216.72"/>
<text text-anchor="middle" x="1388.44" y="-231.8" font-family="Times,serif" font-size="14.00">kidney disease</text>
</g>
<!-- compliance with current hygiene measures 3 -->
<g id="node16" class="node">
<title>compliance with current hygiene measures 3</title>
<ellipse fill="none" stroke="black" cx="2230.44" cy="-192" rx="211.46" ry="18"/>
<text text-anchor="middle" x="2230.44" y="-188.3" font-family="Times,serif" font-size="14.00">compliance with current hygiene measures</text>
</g>
<!-- pre&#45;existing conditions &#45;&gt;compliance with current hygiene measures 3 -->
<g id="edge18" class="edge">
<title>pre&#45;existing conditions &#45;&gt;compliance with current hygiene measures 3</title>
<path fill="none" stroke="black" d="M1360.6,-269.14C1531.61,-254.17 1878.71,-223.79 2078.88,-206.27"/>
<polygon fill="black" stroke="black" points="2079.24,-209.75 2088.89,-205.39 2078.63,-202.78 2079.24,-209.75"/>
<text text-anchor="middle" x="1848.44" y="-231.8" font-family="Times,serif" font-size="14.00">lung disease</text>
</g>
<!-- severe infection symptoms 200 -->
<g id="node7" class="node">
<title>severe infection symptoms 200</title>
<ellipse fill="none" stroke="black" cx="608.44" cy="-18" rx="135.68" ry="18"/>
<text text-anchor="middle" x="608.44" y="-14.3" font-family="Times,serif" font-size="14.00">severe infection symptoms</text>
</g>
<!-- compliance with current hygiene measures 20 -->
<g id="node8" class="node">
<title>compliance with current hygiene measures 20</title>
<ellipse fill="none" stroke="black" cx="1038.44" cy="-105" rx="211.46" ry="18"/>
<text text-anchor="middle" x="1038.44" y="-101.3" font-family="Times,serif" font-size="14.00">compliance with current hygiene measures</text>
</g>
<!-- compliance with current hygiene measures 20&#45;&gt;severe infection symptoms 200 -->
<g id="edge6" class="edge">
<title>compliance with current hygiene measures 20&#45;&gt;severe infection symptoms 200</title>
<path fill="none" stroke="black" d="M956.42,-88.39C925.12,-82.39 889.11,-75.44 856.44,-69 800.4,-57.96 737.3,-45.24 688.77,-35.39"/>
<polygon fill="black" stroke="black" points="689.45,-31.95 678.96,-33.39 688.06,-38.81 689.45,-31.95"/>
<text text-anchor="middle" x="906.44" y="-57.8" font-family="Times,serif" font-size="14.00">pretty strictly</text>
</g>
<!-- severe infection symptoms 201 -->
<g id="node9" class="node">
<title>severe infection symptoms 201</title>
<ellipse fill="none" stroke="black" cx="898.44" cy="-18" rx="135.68" ry="18"/>
<text text-anchor="middle" x="898.44" y="-14.3" font-family="Times,serif" font-size="14.00">severe infection symptoms</text>
</g>
<!-- compliance with current hygiene measures 20&#45;&gt;severe infection symptoms 201 -->
<g id="edge7" class="edge">
<title>compliance with current hygiene measures 20&#45;&gt;severe infection symptoms 201</title>
<path fill="none" stroke="black" d="M1010.44,-87C988.65,-73.77 958.24,-55.31 934.6,-40.96"/>
<polygon fill="black" stroke="black" points="936.27,-37.88 925.91,-35.68 932.64,-43.86 936.27,-37.88"/>
<text text-anchor="middle" x="1009.44" y="-57.8" font-family="Times,serif" font-size="14.00">not at all</text>
</g>
<!-- mild infection symptoms 202 -->
<g id="node10" class="node">
<title>mild infection symptoms 202</title>
<ellipse fill="none" stroke="black" cx="1177.44" cy="-18" rx="125.38" ry="18"/>
<text text-anchor="middle" x="1177.44" y="-14.3" font-family="Times,serif" font-size="14.00">mild infection symptoms</text>
</g>
<!-- compliance with current hygiene measures 20&#45;&gt;mild infection symptoms 202 -->
<g id="edge8" class="edge">
<title>compliance with current hygiene measures 20&#45;&gt;mild infection symptoms 202</title>
<path fill="none" stroke="black" d="M1066.23,-87C1087.87,-73.77 1118.07,-55.31 1141.53,-40.96"/>
<polygon fill="black" stroke="black" points="1143.46,-43.88 1150.17,-35.68 1139.81,-37.91 1143.46,-43.88"/>
<text text-anchor="middle" x="1160.44" y="-57.8" font-family="Times,serif" font-size="14.00">very strictly</text>
</g>
<!-- severe infection symptoms 203 -->
<g id="node11" class="node">
<title>severe infection symptoms 203</title>
<ellipse fill="none" stroke="black" cx="1456.44" cy="-18" rx="135.68" ry="18"/>
<text text-anchor="middle" x="1456.44" y="-14.3" font-family="Times,serif" font-size="14.00">severe infection symptoms</text>
</g>
<!-- compliance with current hygiene measures 20&#45;&gt;severe infection symptoms 203 -->
<g id="edge9" class="edge">
<title>compliance with current hygiene measures 20&#45;&gt;severe infection symptoms 203</title>
<path fill="none" stroke="black" d="M1116.08,-88.21C1189.97,-73.19 1300.69,-50.67 1375.61,-35.44"/>
<polygon fill="black" stroke="black" points="1376.38,-38.85 1385.48,-33.43 1374.98,-31.99 1376.38,-38.85"/>
<text text-anchor="middle" x="1337.94" y="-57.8" font-family="Times,serif" font-size="14.00">somewhat strictly</text>
</g>
<!-- do sports 2&#45;&gt;compliance with current hygiene measures 20 -->
<g id="edge10" class="edge">
<title>do sports 2&#45;&gt;compliance with current hygiene measures 20</title>
<path fill="none" stroke="black" d="M1353.16,-179.91C1345.62,-177.9 1337.8,-175.85 1330.44,-174 1259.57,-156.19 1178.62,-137.47 1119.96,-124.19"/>
<polygon fill="black" stroke="black" points="1120.53,-120.73 1110.01,-121.94 1118.99,-127.56 1120.53,-120.73"/>
<text text-anchor="middle" x="1283.44" y="-144.8" font-family="Times,serif" font-size="14.00">not at all</text>
</g>
<!-- mild infection symptoms 21 -->
<g id="node13" class="node">
<title>mild infection symptoms 21</title>
<ellipse fill="none" stroke="black" cx="1393.44" cy="-105" rx="125.38" ry="18"/>
<text text-anchor="middle" x="1393.44" y="-101.3" font-family="Times,serif" font-size="14.00">mild infection symptoms</text>
</g>
<!-- do sports 2&#45;&gt;mild infection symptoms 21 -->
<g id="edge11" class="edge">
<title>do sports 2&#45;&gt;mild infection symptoms 21</title>
<path fill="none" stroke="black" d="M1393.44,-173.8C1393.44,-162.16 1393.44,-146.55 1393.44,-133.24"/>
<polygon fill="black" stroke="black" points="1396.94,-133.18 1393.44,-123.18 1389.94,-133.18 1396.94,-133.18"/>
<text text-anchor="middle" x="1426.44" y="-144.8" font-family="Times,serif" font-size="14.00">regularly</text>
</g>
<!-- severe infection symptoms 22 -->
<g id="node14" class="node">
<title>severe infection symptoms 22</title>
<ellipse fill="none" stroke="black" cx="1672.44" cy="-105" rx="135.68" ry="18"/>
<text text-anchor="middle" x="1672.44" y="-101.3" font-family="Times,serif" font-size="14.00">severe infection symptoms</text>
</g>
<!-- do sports 2&#45;&gt;severe infection symptoms 22 -->
<g id="edge12" class="edge">
<title>do sports 2&#45;&gt;severe infection symptoms 22</title>
<path fill="none" stroke="black" d="M1431.94,-179.27C1478.19,-165.18 1556.38,-141.36 1611.01,-124.72"/>
<polygon fill="black" stroke="black" points="1612.03,-128.06 1620.58,-121.8 1609.99,-121.37 1612.03,-128.06"/>
<text text-anchor="middle" x="1588.94" y="-144.8" font-family="Times,serif" font-size="14.00">irregularly</text>
</g>
<!-- mild infection symptoms 30 -->
<g id="node15" class="node">
<title>mild infection symptoms 30</title>
<ellipse fill="none" stroke="black" cx="1951.44" cy="-105" rx="125.38" ry="18"/>
<text text-anchor="middle" x="1951.44" y="-101.3" font-family="Times,serif" font-size="14.00">mild infection symptoms</text>
</g>
<!-- compliance with current hygiene measures 3&#45;&gt;mild infection symptoms 30 -->
<g id="edge14" class="edge">
<title>compliance with current hygiene measures 3&#45;&gt;mild infection symptoms 30</title>
<path fill="none" stroke="black" d="M2176.31,-174.51C2129.32,-160.19 2061.32,-139.48 2012.41,-124.58"/>
<polygon fill="black" stroke="black" points="2013.18,-121.15 2002.59,-121.58 2011.14,-127.85 2013.18,-121.15"/>
<text text-anchor="middle" x="2152.44" y="-144.8" font-family="Times,serif" font-size="14.00">very strictly</text>
</g>
<!-- severe infection symptoms 31 -->
<g id="node17" class="node">
<title>severe infection symptoms 31</title>
<ellipse fill="none" stroke="black" cx="2230.44" cy="-105" rx="135.68" ry="18"/>
<text text-anchor="middle" x="2230.44" y="-101.3" font-family="Times,serif" font-size="14.00">severe infection symptoms</text>
</g>
<!-- compliance with current hygiene measures 3&#45;&gt;severe infection symptoms 31 -->
<g id="edge15" class="edge">
<title>compliance with current hygiene measures 3&#45;&gt;severe infection symptoms 31</title>
<path fill="none" stroke="black" d="M2230.44,-173.8C2230.44,-162.16 2230.44,-146.55 2230.44,-133.24"/>
<polygon fill="black" stroke="black" points="2233.94,-133.18 2230.44,-123.18 2226.94,-133.18 2233.94,-133.18"/>
<text text-anchor="middle" x="2262.44" y="-144.8" font-family="Times,serif" font-size="14.00">not at all</text>
</g>
<!-- severe infection symptoms 32 -->
<g id="node18" class="node">
<title>severe infection symptoms 32</title>
<ellipse fill="none" stroke="black" cx="2520.44" cy="-105" rx="135.68" ry="18"/>
<text text-anchor="middle" x="2520.44" y="-101.3" font-family="Times,serif" font-size="14.00">severe infection symptoms</text>
</g>
<!-- compliance with current hygiene measures 3&#45;&gt;severe infection symptoms 32 -->
<g id="edge16" class="edge">
<title>compliance with current hygiene measures 3&#45;&gt;severe infection symptoms 32</title>
<path fill="none" stroke="black" d="M2286.35,-174.61C2335.27,-160.27 2406.27,-139.46 2457.23,-124.53"/>
<polygon fill="black" stroke="black" points="2458.53,-127.79 2467.14,-121.62 2456.56,-121.08 2458.53,-127.79"/>
<text text-anchor="middle" x="2443.44" y="-144.8" font-family="Times,serif" font-size="14.00">pretty strictly</text>
</g>
<!-- severe infection symptoms 33 -->
<g id="node19" class="node">
<title>severe infection symptoms 33</title>
<ellipse fill="none" stroke="black" cx="2810.44" cy="-105" rx="135.68" ry="18"/>
<text text-anchor="middle" x="2810.44" y="-101.3" font-family="Times,serif" font-size="14.00">severe infection symptoms</text>
</g>
<!-- compliance with current hygiene measures 3&#45;&gt;severe infection symptoms 33 -->
<g id="edge17" class="edge">
<title>compliance with current hygiene measures 3&#45;&gt;severe infection symptoms 33</title>
<path fill="none" stroke="black" d="M2344.22,-176.8C2391.63,-170.7 2447.24,-163.3 2497.44,-156 2572.37,-145.11 2657.17,-131.48 2719.58,-121.2"/>
<polygon fill="black" stroke="black" points="2720.5,-124.6 2729.8,-119.52 2719.36,-117.69 2720.5,-124.6"/>
<text text-anchor="middle" x="2656.94" y="-144.8" font-family="Times,serif" font-size="14.00">somewhat strictly</text>
</g>
</g>
</svg>
