<?xml version="1.0" encoding="UTF-8" standalone="no"?>
<!DOCTYPE svg PUBLIC "-//W3C//DTD SVG 1.1//EN"
 "http://www.w3.org/Graphics/SVG/1.1/DTD/svg11.dtd">
<!-- Generated by graphviz version 2.43.0 (0)
 -->
<!-- Title: G Pages: 1 -->
<svg width="1392pt" height="305pt"
 viewBox="0.00 0.00 1391.93 305.00" xmlns="http://www.w3.org/2000/svg" xmlns:xlink="http://www.w3.org/1999/xlink">
<g id="graph0" class="graph" transform="scale(1 1) rotate(0) translate(4 301)">
<title>G</title>
<polygon fill="white" stroke="transparent" points="-4,4 -4,-301 1387.93,-301 1387.93,4 -4,4"/>
<!-- low accident probability 00 -->
<g id="node1" class="node">
<title>low accident probability 00</title>
<ellipse fill="none" stroke="black" cx="122.19" cy="-105" rx="122.38" ry="18"/>
<text text-anchor="middle" x="122.19" y="-101.3" font-family="Times,serif" font-size="14.00">low accident probability</text>
</g>
<!-- age 0 -->
<g id="node2" class="node">
<title>age 0</title>
<ellipse fill="none" stroke="black" cx="389.19" cy="-192" rx="27.1" ry="18"/>
<text text-anchor="middle" x="389.19" y="-188.3" font-family="Times,serif" font-size="14.00">age</text>
</g>
<!-- age 0&#45;&gt;low accident probability 00 -->
<g id="edge1" class="edge">
<title>age 0&#45;&gt;low accident probability 00</title>
<path fill="none" stroke="black" d="M365.02,-183.31C323.7,-170.15 238.36,-142.98 180.68,-124.62"/>
<polygon fill="black" stroke="black" points="181.55,-121.23 170.96,-121.53 179.43,-127.9 181.55,-121.23"/>
<text text-anchor="middle" x="287.69" y="-144.8" font-family="Times,serif" font-size="14.00">&gt;30</text>
</g>
<!-- high accident probability 01 -->
<g id="node3" class="node">
<title>high accident probability 01</title>
<ellipse fill="none" stroke="black" cx="389.19" cy="-105" rx="126.98" ry="18"/>
<text text-anchor="middle" x="389.19" y="-101.3" font-family="Times,serif" font-size="14.00">high accident probability</text>
</g>
<!-- age 0&#45;&gt;high accident probability 01 -->
<g id="edge2" class="edge">
<title>age 0&#45;&gt;high accident probability 01</title>
<path fill="none" stroke="black" d="M389.19,-173.8C389.19,-162.16 389.19,-146.55 389.19,-133.24"/>
<polygon fill="black" stroke="black" points="392.69,-133.18 389.19,-123.18 385.69,-133.18 392.69,-133.18"/>
<text text-anchor="middle" x="409.69" y="-144.8" font-family="Times,serif" font-size="14.00">20&#45;25</text>
</g>
<!-- years since driver’s license  -->
<g id="node4" class="node">
<title>years since driver’s license </title>
<ellipse fill="none" stroke="black" cx="888.19" cy="-279" rx="139.98" ry="18"/>
<text text-anchor="middle" x="888.19" y="-275.3" font-family="Times,serif" font-size="14.00">years since driver’s license </text>
</g>
<!-- years since driver’s license &#45;&gt;age 0 -->
<g id="edge3" class="edge">
<title>years since driver’s license &#45;&gt;age 0</title>
<path fill="none" stroke="black" d="M807.46,-264.25C697.51,-245.52 505.25,-212.77 425.47,-199.18"/>
<polygon fill="black" stroke="black" points="425.87,-195.7 415.43,-197.47 424.7,-202.6 425.87,-195.7"/>
<text text-anchor="middle" x="680.69" y="-231.8" font-family="Times,serif" font-size="14.00">5&#45;7</text>
</g>
<!-- driving style 1 -->
<g id="node8" class="node">
<title>driving style 1</title>
<ellipse fill="none" stroke="black" cx="728.19" cy="-192" rx="69.59" ry="18"/>
<text text-anchor="middle" x="728.19" y="-188.3" font-family="Times,serif" font-size="14.00">driving style</text>
</g>
<!-- years since driver’s license &#45;&gt;driving style 1 -->
<g id="edge10" class="edge">
<title>years since driver’s license &#45;&gt;driving style 1</title>
<path fill="none" stroke="black" d="M856.96,-261.41C830.98,-247.61 793.9,-227.91 766.19,-213.19"/>
<polygon fill="black" stroke="black" points="767.66,-210.01 757.19,-208.4 764.37,-216.19 767.66,-210.01"/>
<text text-anchor="middle" x="829.19" y="-231.8" font-family="Times,serif" font-size="14.00">&gt;7</text>
</g>
<!-- high accident probability 2 -->
<g id="node12" class="node">
<title>high accident probability 2</title>
<ellipse fill="none" stroke="black" cx="942.19" cy="-192" rx="126.98" ry="18"/>
<text text-anchor="middle" x="942.19" y="-188.3" font-family="Times,serif" font-size="14.00">high accident probability</text>
</g>
<!-- years since driver’s license &#45;&gt;high accident probability 2 -->
<g id="edge11" class="edge">
<title>years since driver’s license &#45;&gt;high accident probability 2</title>
<path fill="none" stroke="black" d="M899.12,-260.8C906.8,-248.7 917.22,-232.3 925.88,-218.67"/>
<polygon fill="black" stroke="black" points="928.87,-220.49 931.28,-210.18 922.96,-216.74 928.87,-220.49"/>
<text text-anchor="middle" x="930.69" y="-231.8" font-family="Times,serif" font-size="14.00">2&#45;5</text>
</g>
<!-- high accident probability 3 -->
<g id="node13" class="node">
<title>high accident probability 3</title>
<ellipse fill="none" stroke="black" cx="1213.19" cy="-192" rx="126.98" ry="18"/>
<text text-anchor="middle" x="1213.19" y="-188.3" font-family="Times,serif" font-size="14.00">high accident probability</text>
</g>
<!-- years since driver’s license &#45;&gt;high accident probability 3 -->
<g id="edge12" class="edge">
<title>years since driver’s license &#45;&gt;high accident probability 3</title>
<path fill="none" stroke="black" d="M947.04,-262.61C1002.98,-247.98 1087.05,-225.99 1145.68,-210.66"/>
<polygon fill="black" stroke="black" points="1146.8,-213.98 1155.59,-208.06 1145.03,-207.21 1146.8,-213.98"/>
<text text-anchor="middle" x="1081.19" y="-231.8" font-family="Times,serif" font-size="14.00">&lt;2</text>
</g>
<!-- low accident probability 100 -->
<g id="node5" class="node">
<title>low accident probability 100</title>
<ellipse fill="none" stroke="black" cx="427.19" cy="-18" rx="122.38" ry="18"/>
<text text-anchor="middle" x="427.19" y="-14.3" font-family="Times,serif" font-size="14.00">low accident probability</text>
</g>
<!-- age 10 -->
<g id="node6" class="node">
<title>age 10</title>
<ellipse fill="none" stroke="black" cx="561.19" cy="-105" rx="27.1" ry="18"/>
<text text-anchor="middle" x="561.19" y="-101.3" font-family="Times,serif" font-size="14.00">age</text>
</g>
<!-- age 10&#45;&gt;low accident probability 100 -->
<g id="edge4" class="edge">
<title>age 10&#45;&gt;low accident probability 100</title>
<path fill="none" stroke="black" d="M542.27,-92C521.49,-78.82 487.67,-57.37 462.06,-41.12"/>
<polygon fill="black" stroke="black" points="463.69,-38.01 453.37,-35.61 459.94,-43.92 463.69,-38.01"/>
<text text-anchor="middle" x="518.69" y="-57.8" font-family="Times,serif" font-size="14.00">&gt;30</text>
</g>
<!-- high accident probability 101 -->
<g id="node7" class="node">
<title>high accident probability 101</title>
<ellipse fill="none" stroke="black" cx="694.19" cy="-18" rx="126.98" ry="18"/>
<text text-anchor="middle" x="694.19" y="-14.3" font-family="Times,serif" font-size="14.00">high accident probability</text>
</g>
<!-- age 10&#45;&gt;high accident probability 101 -->
<g id="edge5" class="edge">
<title>age 10&#45;&gt;high accident probability 101</title>
<path fill="none" stroke="black" d="M580.24,-91.82C600.81,-78.68 633.99,-57.47 659.26,-41.32"/>
<polygon fill="black" stroke="black" points="661.29,-44.18 667.83,-35.84 657.52,-38.28 661.29,-44.18"/>
<text text-anchor="middle" x="656.69" y="-57.8" font-family="Times,serif" font-size="14.00">25&#45;30</text>
</g>
<!-- driving style 1&#45;&gt;age 10 -->
<g id="edge6" class="edge">
<title>driving style 1&#45;&gt;age 10</title>
<path fill="none" stroke="black" d="M697.95,-175.61C667.75,-160.24 621.61,-136.75 591.42,-121.39"/>
<polygon fill="black" stroke="black" points="592.72,-118.12 582.22,-116.7 589.55,-124.36 592.72,-118.12"/>
<text text-anchor="middle" x="684.69" y="-144.8" font-family="Times,serif" font-size="14.00">reckless</text>
</g>
<!-- low accident probability 11 -->
<g id="node9" class="node">
<title>low accident probability 11</title>
<ellipse fill="none" stroke="black" cx="728.19" cy="-105" rx="122.38" ry="18"/>
<text text-anchor="middle" x="728.19" y="-101.3" font-family="Times,serif" font-size="14.00">low accident probability</text>
</g>
<!-- driving style 1&#45;&gt;low accident probability 11 -->
<g id="edge7" class="edge">
<title>driving style 1&#45;&gt;low accident probability 11</title>
<path fill="none" stroke="black" d="M728.19,-173.8C728.19,-162.16 728.19,-146.55 728.19,-133.24"/>
<polygon fill="black" stroke="black" points="731.69,-133.18 728.19,-123.18 724.69,-133.18 731.69,-133.18"/>
<text text-anchor="middle" x="752.19" y="-144.8" font-family="Times,serif" font-size="14.00">secure</text>
</g>
<!-- low accident probability 12 -->
<g id="node10" class="node">
<title>low accident probability 12</title>
<ellipse fill="none" stroke="black" cx="990.19" cy="-105" rx="122.38" ry="18"/>
<text text-anchor="middle" x="990.19" y="-101.3" font-family="Times,serif" font-size="14.00">low accident probability</text>
</g>
<!-- driving style 1&#45;&gt;low accident probability 12 -->
<g id="edge8" class="edge">
<title>driving style 1&#45;&gt;low accident probability 12</title>
<path fill="none" stroke="black" d="M769.7,-177.53C813.67,-163.27 883.39,-140.65 932.64,-124.67"/>
<polygon fill="black" stroke="black" points="933.77,-127.98 942.2,-121.57 931.61,-121.32 933.77,-127.98"/>
<text text-anchor="middle" x="934.69" y="-144.8" font-family="Times,serif" font-size="14.00">slightly insecure</text>
</g>
<!-- high accident probability 13 -->
<g id="node11" class="node">
<title>high accident probability 13</title>
<ellipse fill="none" stroke="black" cx="1257.19" cy="-105" rx="126.98" ry="18"/>
<text text-anchor="middle" x="1257.19" y="-101.3" font-family="Times,serif" font-size="14.00">high accident probability</text>
</g>
<!-- driving style 1&#45;&gt;high accident probability 13 -->
<g id="edge9" class="edge">
<title>driving style 1&#45;&gt;high accident probability 13</title>
<path fill="none" stroke="black" d="M777.54,-179.3C787.01,-177.32 796.88,-175.45 806.19,-174 890.88,-160.85 913.35,-168.14 998.19,-156 1060.35,-147.11 1130.22,-133.4 1181.71,-122.58"/>
<polygon fill="black" stroke="black" points="1182.69,-125.95 1191.75,-120.46 1181.25,-119.1 1182.69,-125.95"/>
<text text-anchor="middle" x="1114.69" y="-144.8" font-family="Times,serif" font-size="14.00">insecure</text>
</g>
</g>
</svg>
