<?xml version="1.0" encoding="UTF-8" standalone="no"?>
<!DOCTYPE svg PUBLIC "-//W3C//DTD SVG 1.1//EN"
 "http://www.w3.org/Graphics/SVG/1.1/DTD/svg11.dtd">
<!-- Generated by graphviz version 2.43.0 (0)
 -->
<!-- Title: G Pages: 1 -->
<svg width="524pt" height="218pt"
 viewBox="0.00 0.00 524.09 218.00" xmlns="http://www.w3.org/2000/svg" xmlns:xlink="http://www.w3.org/1999/xlink">
<g id="graph0" class="graph" transform="scale(1 1) rotate(0) translate(4 214)">
<title>G</title>
<polygon fill="white" stroke="transparent" points="-4,4 -4,-214 520.09,-214 520.09,4 -4,4"/>
<!-- eat at home 0 -->
<g id="node1" class="node">
<title>eat at home 0</title>
<ellipse fill="none" stroke="black" cx="65.64" cy="-105" rx="65.79" ry="18"/>
<text text-anchor="middle" x="65.64" y="-101.3" font-family="Times,serif" font-size="14.00">eat at home</text>
</g>
<!-- Do I feel like cooking?  -->
<g id="node2" class="node">
<title>Do I feel like cooking? </title>
<ellipse fill="none" stroke="black" cx="142.64" cy="-192" rx="115.88" ry="18"/>
<text text-anchor="middle" x="142.64" y="-188.3" font-family="Times,serif" font-size="14.00">Do I feel like cooking? </text>
</g>
<!-- Do I feel like cooking? &#45;&gt;eat at home 0 -->
<g id="edge1" class="edge">
<title>Do I feel like cooking? &#45;&gt;eat at home 0</title>
<path fill="none" stroke="black" d="M127.06,-173.8C115.75,-161.31 100.28,-144.24 87.7,-130.35"/>
<polygon fill="black" stroke="black" points="89.99,-127.66 80.68,-122.6 84.8,-132.36 89.99,-127.66"/>
<text text-anchor="middle" x="122.14" y="-144.8" font-family="Times,serif" font-size="14.00">yes</text>
</g>
<!-- any classes at the university today? 1 -->
<g id="node4" class="node">
<title>any classes at the university today? 1</title>
<ellipse fill="none" stroke="black" cx="325.64" cy="-105" rx="176.57" ry="18"/>
<text text-anchor="middle" x="325.64" y="-101.3" font-family="Times,serif" font-size="14.00">any classes at the university today?</text>
</g>
<!-- Do I feel like cooking? &#45;&gt;any classes at the university today? 1 -->
<g id="edge4" class="edge">
<title>Do I feel like cooking? &#45;&gt;any classes at the university today? 1</title>
<path fill="none" stroke="black" d="M177.5,-174.81C206.76,-161.22 248.76,-141.71 280.57,-126.94"/>
<polygon fill="black" stroke="black" points="282.08,-130.1 289.67,-122.71 279.13,-123.75 282.08,-130.1"/>
<text text-anchor="middle" x="253.64" y="-144.8" font-family="Times,serif" font-size="14.00">no</text>
</g>
<!-- eat at home 10 -->
<g id="node3" class="node">
<title>eat at home 10</title>
<ellipse fill="none" stroke="black" cx="233.64" cy="-18" rx="65.79" ry="18"/>
<text text-anchor="middle" x="233.64" y="-14.3" font-family="Times,serif" font-size="14.00">eat at home</text>
</g>
<!-- any classes at the university today? 1&#45;&gt;eat at home 10 -->
<g id="edge2" class="edge">
<title>any classes at the university today? 1&#45;&gt;eat at home 10</title>
<path fill="none" stroke="black" d="M307.03,-86.8C293.26,-74.08 274.34,-56.6 259.16,-42.57"/>
<polygon fill="black" stroke="black" points="261.33,-39.81 251.61,-35.6 256.58,-44.95 261.33,-39.81"/>
<text text-anchor="middle" x="293.64" y="-57.8" font-family="Times,serif" font-size="14.00">no</text>
</g>
<!-- eat at the cafeteria 11 -->
<g id="node5" class="node">
<title>eat at the cafeteria 11</title>
<ellipse fill="none" stroke="black" cx="416.64" cy="-18" rx="99.38" ry="18"/>
<text text-anchor="middle" x="416.64" y="-14.3" font-family="Times,serif" font-size="14.00">eat at the cafeteria</text>
</g>
<!-- any classes at the university today? 1&#45;&gt;eat at the cafeteria 11 -->
<g id="edge3" class="edge">
<title>any classes at the university today? 1&#45;&gt;eat at the cafeteria 11</title>
<path fill="none" stroke="black" d="M344.06,-86.8C357.59,-74.16 376.15,-56.82 391.12,-42.85"/>
<polygon fill="black" stroke="black" points="393.65,-45.27 398.57,-35.89 388.87,-40.15 393.65,-45.27"/>
<text text-anchor="middle" x="388.14" y="-57.8" font-family="Times,serif" font-size="14.00">yes</text>
</g>
</g>
</svg>
